<?xml version="1.0" encoding="UTF-8"?>
<svg id="Layer_2" data-name="Layer 2" xmlns="http://www.w3.org/2000/svg" viewBox="0 0 509.03 992.42">
  <defs>
    <style>
      .cls-1 {
        fill: #000;
      }

      .cls-1, .cls-2, .cls-3 {
        stroke-width: 0px;
      }

      .cls-2 {
        fill: #231f20;
      }

      .cls-3 {
        fill: #fff;
      }
    </style>
  </defs>
  <g id="Layer_1-2" data-name="Layer 1">
    <g>
      <path class="cls-1" d="M254.52,992.42C114.17,992.42,0,878.25,0,737.91s114.17-254.52,254.52-254.52,254.52,114.17,254.52,254.52-114.18,254.52-254.52,254.52ZM254.52,509.03c-126.2,0-228.88,102.67-228.88,228.88s102.67,228.88,228.88,228.88,228.88-102.67,228.88-228.88-102.67-228.88-228.88-228.88Z"/>
      <path class="cls-2" d="M375.09,917.05c-19.61-18.46-34.99-42.3-46.92-70.37v44.22c-24.61,9.23-62.3,18.46-89.6,23.46l-5.38-22.3c-31.53,8.84-73.45,17.69-112.29,22.3l-9.23-46.92c14.61-.77,31.15-2.69,48.07-5.38v-101.91h-41.15v-43.07h40.38v-26.92h-20.38v-24.61c-5,5.38-10,10.38-15.38,14.61l-18.07-48.45c26.53-18.84,44.61-46.92,54.22-74.6h39.99c10.77,26.92,27.69,48.07,51.15,64.22l-18.84,46.15-11.92-10.38v33.07h-20v26.92h37.3v43.07h-38.07v94.98c15.38-3.46,30-6.92,41.15-10.38v20.77l11.15-1.54v-294.95h134.98v184.97h-43.46c1.92,10.77,4.23,21.15,6.92,31.15,9.23-8.08,17.3-17.69,24.23-28.07l25.76,33.46c-10,13.07-22.69,25.38-34.99,34.61,10.38,20.77,24.23,38.45,42.3,53.07l-31.92,38.84ZM128.59,853.6c-2.69-23.07-6.92-51.15-11.92-73.83l29.23-7.69c4.61,20,8.85,47.68,11.15,71.53l-28.46,10ZM210.89,647.87c-13.08-14.23-23.46-30.76-30.77-46.92-5.77,15-15.77,31.92-26.92,46.92h57.68ZM200.89,832.45c5.38-17.69,10-42.3,12.31-62.3l27.69,7.69c-2.69,19.61-8.08,46.15-13.46,63.45l-26.53-8.84ZM345.48,611.72h-52.68v28.46h52.68v-28.46ZM345.48,681.32h-52.68v30.38h52.68v-30.38ZM292.8,753.62v102.29c12.69-2.69,25.38-6.54,35.38-10-11.92-28.07-20.38-59.61-25-91.91l-10.38-.38Z"/>
      <path class="cls-1" d="M254.52,509.03C114.17,509.03,0,394.86,0,254.52S114.17,0,254.52,0s254.52,114.17,254.52,254.52-114.18,254.52-254.52,254.52ZM254.52,25.64c-126.2,0-228.88,102.67-228.88,228.88s102.67,228.88,228.88,228.88,228.88-102.67,228.88-228.88S380.72,25.64,254.52,25.64Z"/>
      <g>
        <g>
          <g>
            <polygon class="cls-2" points="344.13 256.06 279.41 155.27 279.41 256.06 239.05 256.06 239.05 76.83 277.29 76.83 342.01 177.84 342.01 76.83 382.36 76.83 382.36 256.06 344.13 256.06"/>
            <path class="cls-3" d="M380.86,78.33v176.22h-35.92l-67.04-104.39v104.39h-37.35V78.33h35.92l67.04,104.63v-104.63h37.35M383.86,75.33h-43.35v97.39l-61.52-96.01-.89-1.38h-40.56v182.22h43.35v-97.17l61.52,95.79.89,1.38h40.55V75.33h0Z"/>
          </g>
          <g>
            <path class="cls-2" d="M188.55,260.89c-54.01,0-93.2-39.2-93.2-93.2,0-26.38,9.36-50.21,26.36-67.12,16.92-16.82,40.65-26.09,66.84-26.09,29.48,0,53.71,10.81,72.01,32.13l.93,1.09-31.24,29.43-1.01-1.35c-9.81-13.16-24.64-20.71-40.7-20.71-29.61,0-49.5,21.24-49.5,52.85s20.35,52.85,49.5,52.85c22.27,0,38.94-12.48,42.97-31.96h-51.18v-37.96h96.86v16.82c0,27.3-8.35,50.59-24.14,67.35-15.94,16.91-38.25,25.85-64.51,25.85Z"/>
            <path class="cls-3" d="M188.55,75.99c27.78,0,51.96,9.58,70.87,31.61l-28.97,27.3c-9.82-13.17-25.14-21.31-41.9-21.31-30.65,0-51,22.51-51,54.35s21.79,54.35,51,54.35c24.66,0,41.42-14.61,44.77-34.96h-51.48v-34.96h93.86v15.32c0,54.59-34.24,91.7-87.16,91.7s-91.7-37.83-91.7-91.7,38.55-91.7,91.7-91.7M188.55,72.99c-26.59,0-50.7,9.42-67.9,26.52-17.28,17.19-26.8,41.4-26.8,68.18,0,54.88,39.83,94.7,94.7,94.7,26.69,0,49.38-9.1,65.6-26.32,16.06-17.04,24.55-40.69,24.55-68.38v-18.32h-99.86v40.96h50.79c-4.52,17.71-20.27,28.96-41.09,28.96-28.26,0-48-21.12-48-51.35,0-14.95,4.57-27.77,13.21-37.08,8.67-9.34,20.7-14.28,34.79-14.28,15.58,0,29.97,7.33,39.5,20.1l2.01,2.7,2.45-2.31,28.97-27.3,2.09-1.96-1.87-2.17c-18.6-21.67-43.22-32.65-73.15-32.65h0Z"/>
          </g>
        </g>
        <g>
          <g>
            <polygon class="cls-2" points="129.57 434.54 129.57 427.89 197.09 296.15 136.02 296.15 142.48 255.32 261.39 255.32 261.39 261.97 193.86 393.71 259.73 393.71 253.27 434.54 129.57 434.54"/>
            <path class="cls-3" d="M259.89,256.82v4.79l-68.48,133.61h66.56l-5.99,37.83h-120.92v-4.79l68.48-133.61h-61.77l5.99-37.83h116.13M262.89,253.82h-121.69l-.4,2.53-5.99,37.83-.55,3.47h60.38l-66.24,129.24-.33.64v8.51h126.48l.4-2.53,5.99-37.83.55-3.47h-65.17l66.24-129.24.33-.64v-8.51h0Z"/>
          </g>
          <g>
            <path class="cls-2" d="M344.19,434.55l-8.14-26.58h-57.16l-7.82,25.52-.33,1.05h-44.14l60.39-179.23h40.95l60.87,179.23h-44.62ZM324.59,370.97l-17.34-55.91-17.14,55.91h34.49Z"/>
            <path class="cls-3" d="M326.86,256.82l59.86,176.23h-41.42l-8.14-26.58h-59.38l-7.98,26.06-.16.52h-40.94l.18-.52.07-.21,12.43-36.89,46.7-138.61h38.79M288.07,372.47h38.55l-19.39-62.5-19.16,62.5M329.01,253.82h-43.1l-.69,2.04-46.7,138.61-12.43,36.89-.07.19-.18.54-1.34,3.96h47.33l.65-2.11.16-.52,7.33-23.94h54.94l7.49,24.46.65,2.12h47.83l-1.35-3.96-59.86-176.23-.69-2.04h0ZM292.13,369.47l15.12-49.32,15.3,49.32h-30.42Z"/>
          </g>
        </g>
      </g>
    </g>
  </g>
</svg>