<?xml version="1.0" encoding="UTF-8"?>
<svg id="Layer_2" data-name="Layer 2" xmlns="http://www.w3.org/2000/svg" viewBox="0 0 1050.33 415.27">
  <defs>
    <style>
      .cls-1 {
        fill: #231f20;
      }

      .cls-1, .cls-2 {
        stroke-width: 0px;
      }

      .cls-2 {
        fill: #fff;
      }
    </style>
  </defs>
  <g id="Layer_1-2" data-name="Layer 1">
    <path class="cls-1" d="M297.98,132.55l2.17,5.81c.05-.04.09-.07.14-.11v-5.7h-2.31Z"/>
    <path class="cls-1" d="M332.53,170.74c-.83,7.2-2.49,16.06-4.43,22.42l9.55,3.18c1.93-6.22,3.87-15.77,4.84-22.83l-9.96-2.77Z"/>
    <path class="cls-1" d="M567.36,6.23v181.58L454.8,6.23h-60.3v74.39c-4.36-2.63-8.95-4.9-13.74-6.78V6.23h-66.73v67.61c-25.93,10.18-46.12,31.85-54.28,58.71h-117.04v60.66h86.43c-5.63,35.32-33.77,60.66-75.18,60.66-49.04,0-85.62-37.39-85.62-94.32s34.17-94.31,85.62-94.31c28.14,0,53.87,14.12,70.35,36.97l48.65-47.36C241.2,16.62,200.6,0,153.96,0,64.72,0,0,65.65,0,159.14s65.93,159.13,153.96,159.13c64.73,0,112.82-34.19,134.15-89.38,7.66,6.53,16.4,11.81,25.92,15.55v67.6h66.73v-67.6c4.79-1.88,9.38-4.15,13.74-6.78v74.38h62.71v-181.16l112.56,181.16h60.3V6.23h-62.71ZM394.5,226.66c-4.3,3.02-8.9,5.62-13.74,7.77-10.2,4.55-21.49,7.07-33.36,7.07s-23.16-2.53-33.37-7.07c-8.36-3.72-16-8.79-22.62-14.94-16.22-15.05-26.38-36.54-26.38-60.35,0-9.3,1.55-18.25,4.41-26.59,7.43-21.76,23.74-39.44,44.59-48.7,10.21-4.54,21.5-7.07,33.37-7.07s23.16,2.52,33.36,7.07c4.84,2.15,9.44,4.75,13.74,7.77,21.3,14.89,35.26,39.6,35.26,67.52s-13.96,52.63-35.26,67.52Z"/>
    <path class="cls-1" d="M861.27,6.23h-194.97l-10.05,65.65h103.72l-114.98,231.85v8.31h203.01l10.05-65.65h-111.75L861.27,14.54V6.23Z"/>
    <path class="cls-1" d="M879.53,6.23h65.12l100.5,305.81h-69.55l-13.67-46.12h-99.7l-13.67,46.12h-68.74L879.53,6.23ZM944.25,206.92l-32.56-108.45-32.16,108.45h64.72Z"/>
    <g>
      <path class="cls-1" d="M560.55,348.48l-15.48,37.77h-.61l-15.48-37.77h-11.55v52.13h9.06v-35.89h.48l14.41,35.74h6.77l14.41-35.66h.48v35.81h9.06v-52.13h-11.55Z"/>
      <path class="cls-1" d="M623.21,367.95c-.94-1.73-2.18-3.1-3.73-4.11-1.54-1.01-3.25-1.73-5.11-2.17-1.87-.45-3.74-.67-5.63-.67-2.73,0-5.22.41-7.48,1.21-2.26.81-4.17,2.01-5.73,3.62-1.56,1.6-2.68,3.59-3.36,5.97l8.61,1.22c.45-1.34,1.34-2.5,2.65-3.49,1.32-.98,3.11-1.48,5.36-1.48s3.78.53,4.92,1.58c1.13,1.06,1.7,2.54,1.7,4.46v.15c0,.88-.33,1.53-.98,1.95-.65.41-1.69.72-3.12.91-1.42.2-3.28.42-5.57.65-1.9.21-3.74.53-5.51.98-1.78.45-3.37,1.11-4.77,1.98-1.41.86-2.52,2.01-3.34,3.46-.81,1.44-1.22,3.26-1.22,5.47,0,2.56.57,4.72,1.72,6.46,1.14,1.75,2.7,3.07,4.68,3.96,1.98.89,4.2,1.34,6.68,1.34,2.04,0,3.82-.28,5.33-.85,1.52-.57,2.79-1.33,3.8-2.27,1.01-.94,1.79-1.95,2.35-3.04h.31v5.37h8.86v-26.17c0-2.59-.48-4.76-1.42-6.49ZM615.44,386.59c0,1.44-.37,2.77-1.11,3.99-.74,1.22-1.79,2.2-3.14,2.94-1.36.74-2.97,1.11-4.81,1.11s-3.5-.43-4.74-1.3c-1.24-.87-1.86-2.15-1.86-3.84,0-1.19.32-2.16.94-2.92.63-.75,1.49-1.34,2.57-1.77,1.09-.42,2.32-.73,3.7-.91.61-.09,1.33-.19,2.16-.31.83-.12,1.67-.25,2.52-.41.85-.15,1.62-.33,2.3-.53.69-.2,1.18-.42,1.47-.66v4.61Z"/>
      <path class="cls-1" d="M665.37,361.02c-.63-.05-1.2-.07-1.71-.07-2.24,0-4.23.62-5.97,1.85s-2.97,2.97-3.68,5.23h-.41v-6.52h-8.93v39.1h9.21v-22.98c0-1.67.38-3.14,1.15-4.41.76-1.27,1.81-2.27,3.14-2.99,1.33-.72,2.84-1.08,4.52-1.08.78,0,1.59.05,2.43.16.84.11,1.45.24,1.84.37v-8.47c-.42-.09-.95-.15-1.59-.19Z"/>
      <path class="cls-1" d="M703.36,378.4l-1.49-2.07-6.21,6.49.76,1.06,11.97,16.73h11.02l-16.05-22.21ZM707.75,361.51l-14.05,15.71h-1.48l.03,11.12.82-.88,3.35-3.58,2.91-3.12h1.91l2.12-2.36,15.16-16.89h-10.77ZM683.85,348.48v52.13h9.22v-52.13h-9.22Z"/>
      <path class="cls-1" d="M770.07,380.76c0-3.43-.47-6.39-1.42-8.87-.95-2.49-2.26-4.54-3.91-6.15-1.65-1.61-3.55-2.81-5.7-3.58-2.15-.77-4.43-1.16-6.84-1.16-3.73,0-6.98.86-9.74,2.56-2.77,1.71-4.92,4.08-6.46,7.13-1.53,3.05-2.3,6.58-2.3,10.6s.76,7.64,2.29,10.65c1.53,3.02,3.71,5.34,6.55,6.98,2.85,1.64,6.23,2.45,10.15,2.45,3.04,0,5.73-.46,8.09-1.38,2.36-.93,4.3-2.23,5.82-3.92,1.52-1.69,2.55-3.67,3.09-5.95l-8.6-.96c-.41,1.1-1.01,2.02-1.81,2.77s-1.74,1.31-2.82,1.69c-1.09.38-2.3.58-3.64.58-2.01,0-3.76-.43-5.25-1.29-1.49-.86-2.65-2.1-3.49-3.72-.8-1.56-1.21-3.43-1.23-5.61h27.22v-2.82ZM742.86,377.37c.08-1.53.49-2.95,1.19-4.26.79-1.47,1.89-2.66,3.32-3.57,1.42-.9,3.08-1.36,4.96-1.36,1.77,0,3.31.4,4.65,1.2,1.33.8,2.37,1.89,3.11,3.27.75,1.38,1.13,2.96,1.15,4.72h-18.38Z"/>
      <path class="cls-1" d="M807.3,393.03c-.26.06-.63.14-1.11.22-.48.09-1.02.13-1.59.13-.76,0-1.46-.12-2.09-.35-.63-.24-1.13-.69-1.51-1.34-.38-.65-.58-1.6-.58-2.84v-36.7h-9.21v38.23c-.02,2.44.51,4.48,1.59,6.11,1.08,1.63,2.54,2.83,4.39,3.6s3.93,1.12,6.24,1.05c1.3-.03,2.41-.15,3.32-.35.91-.2,1.61-.39,2.1-.56l-1.55-7.2ZM785.66,361.51v7.13h22.48v-7.13h-22.48Z"/>
      <path class="cls-1" d="M861.36,370.1c-1.44-2.99-3.37-5.26-5.81-6.79-2.43-1.54-5.16-2.31-8.18-2.31-2.29,0-4.17.39-5.65,1.16s-2.65,1.7-3.51,2.78c-.87,1.07-1.54,2.09-2.01,3.04h-.54v-6.47h-9.06v53.76h9.22v-20.82h.38c.49.95,1.18,1.96,2.07,3.02.89,1.06,2.08,1.96,3.55,2.71,1.48.74,3.34,1.12,5.58,1.12,3.07,0,5.82-.79,8.24-2.37,2.43-1.58,4.35-3.87,5.76-6.87,1.4-3.01,2.11-6.65,2.11-10.95s-.72-8.01-2.15-11.01ZM853.06,387.59c-.7,1.91-1.74,3.41-3.12,4.51-1.37,1.09-3.08,1.64-5.11,1.64s-3.62-.53-4.98-1.59c-1.37-1.06-2.41-2.54-3.13-4.44-.72-1.91-1.08-4.12-1.08-6.65s.35-4.72,1.05-6.59c.71-1.87,1.75-3.32,3.12-4.35,1.38-1.04,3.05-1.56,5.02-1.56s3.76.54,5.14,1.61c1.37,1.07,2.41,2.54,3.1,4.43.7,1.88,1.05,4.03,1.05,6.46s-.36,4.62-1.06,6.53Z"/>
      <path class="cls-1" d="M882.13,348.48v52.13h9.21v-52.13h-9.21Z"/>
      <path class="cls-1" d="M942.04,367.95c-.94-1.73-2.18-3.1-3.73-4.11-1.54-1.01-3.25-1.73-5.11-2.17-1.87-.45-3.75-.67-5.63-.67-2.73,0-5.23.41-7.48,1.21-2.26.81-4.17,2.01-5.73,3.62-1.56,1.6-2.68,3.59-3.36,5.97l8.6,1.22c.46-1.34,1.35-2.5,2.66-3.49,1.32-.98,3.1-1.48,5.36-1.48,2.14,0,3.78.53,4.91,1.58,1.14,1.06,1.71,2.54,1.71,4.46v.15c0,.88-.33,1.53-.98,1.95-.65.41-1.69.72-3.12.91-1.42.2-3.28.42-5.57.65-1.9.21-3.74.53-5.51.98-1.78.45-3.37,1.11-4.78,1.98-1.4.86-2.52,2.01-3.33,3.46-.82,1.44-1.22,3.26-1.22,5.47,0,2.56.57,4.72,1.72,6.46,1.14,1.75,2.7,3.07,4.68,3.96,1.98.89,4.2,1.34,6.68,1.34,2.04,0,3.81-.28,5.33-.85,1.52-.57,2.79-1.33,3.8-2.27,1.01-.94,1.79-1.95,2.35-3.04h.31v5.37h8.85v-26.17c0-2.59-.47-4.76-1.41-6.49ZM934.26,386.59c0,1.44-.36,2.77-1.1,3.99s-1.79,2.2-3.15,2.94c-1.35.74-2.96,1.11-4.81,1.11s-3.49-.43-4.73-1.3c-1.24-.87-1.86-2.15-1.86-3.84,0-1.19.31-2.16.94-2.92.63-.75,1.49-1.34,2.57-1.77,1.09-.42,2.32-.73,3.69-.91.61-.09,1.34-.19,2.17-.31.83-.12,1.67-.25,2.52-.41.85-.15,1.61-.33,2.3-.53.69-.2,1.18-.42,1.46-.66v4.61Z"/>
      <path class="cls-1" d="M986.99,390.84c-.73.98-1.63,1.73-2.71,2.25-1.08.52-2.3.78-3.65.78-1.92,0-3.59-.52-5-1.54-1.42-1.03-2.52-2.5-3.3-4.41-.78-1.91-1.17-4.19-1.17-6.86s.39-4.89,1.18-6.77c.79-1.88,1.9-3.33,3.32-4.34,1.43-1.01,3.08-1.51,4.97-1.51,2.22,0,4,.63,5.33,1.89,1.33,1.27,2.18,2.84,2.53,4.72h8.81c-.2-2.81-1.04-5.28-2.5-7.39-1.46-2.11-3.41-3.75-5.86-4.91-2.45-1.16-5.27-1.75-8.44-1.75-3.82,0-7.12.86-9.92,2.56-2.79,1.71-4.95,4.08-6.47,7.13-1.53,3.05-2.29,6.55-2.29,10.52s.75,7.45,2.25,10.48,3.65,5.4,6.44,7.11c2.79,1.72,6.14,2.57,10.04,2.57,3.28,0,6.13-.59,8.55-1.79,2.43-1.2,4.35-2.86,5.76-4.99,1.4-2.13,2.22-4.58,2.44-7.34h-8.81c-.27,1.41-.77,2.6-1.5,3.59Z"/>
      <path class="cls-1" d="M1050.33,380.76c0-3.43-.48-6.39-1.43-8.87-.95-2.49-2.25-4.54-3.9-6.15-1.66-1.61-3.56-2.81-5.71-3.58-2.14-.77-4.42-1.16-6.83-1.16-3.73,0-6.98.86-9.75,2.56-2.76,1.71-4.92,4.08-6.45,7.13-1.54,3.05-2.3,6.58-2.3,10.6s.76,7.64,2.29,10.65c1.52,3.02,3.71,5.34,6.55,6.98,2.84,1.64,6.22,2.45,10.14,2.45,3.04,0,5.74-.46,8.1-1.38,2.36-.93,4.3-2.23,5.82-3.92,1.51-1.69,2.54-3.67,3.09-5.95l-8.61-.96c-.4,1.1-1,2.02-1.8,2.77-.8.75-1.74,1.31-2.83,1.69-1.08.38-2.3.58-3.64.58-2,0-3.75-.43-5.24-1.29-1.49-.86-2.66-2.1-3.49-3.72-.8-1.56-1.22-3.43-1.24-5.61h27.23v-2.82ZM1023.12,377.37c.08-1.53.48-2.95,1.18-4.26.79-1.47,1.9-2.66,3.33-3.57,1.42-.9,3.08-1.36,4.96-1.36,1.76,0,3.31.4,4.64,1.2,1.34.8,2.37,1.89,3.12,3.27s1.13,2.96,1.15,4.72h-18.38Z"/>
    </g>
    <g>
      <path class="cls-2" d="M297.98,132.55l2.17,5.81c.05-.04.09-.07.14-.11v-5.7h-2.31ZM297.98,132.55l2.17,5.81c.05-.04.09-.07.14-.11v-5.7h-2.31ZM297.98,132.55l2.17,5.81c.05-.04.09-.07.14-.11v-5.7h-2.31ZM297.98,132.55l2.17,5.81c.05-.04.09-.07.14-.11v-5.7h-2.31ZM297.98,132.55l2.17,5.81c.05-.04.09-.07.14-.11v-5.7h-2.31ZM332.53,170.74c-.83,7.2-2.49,16.06-4.43,22.42l9.55,3.18c1.93-6.22,3.87-15.77,4.84-22.83l-9.96-2.77ZM332.53,170.74c-.83,7.2-2.49,16.06-4.43,22.42l9.55,3.18c1.93-6.22,3.87-15.77,4.84-22.83l-9.96-2.77ZM297.98,132.55l2.17,5.81c.05-.04.09-.07.14-.11v-5.7h-2.31ZM297.98,132.55l2.17,5.81c.05-.04.09-.07.14-.11v-5.7h-2.31ZM332.53,170.74c-.83,7.2-2.49,16.06-4.43,22.42l9.55,3.18c1.93-6.22,3.87-15.77,4.84-22.83l-9.96-2.77ZM332.53,170.74c-.83,7.2-2.49,16.06-4.43,22.42l9.55,3.18c1.93-6.22,3.87-15.77,4.84-22.83l-9.96-2.77ZM297.98,132.55l2.17,5.81c.05-.04.09-.07.14-.11v-5.7h-2.31ZM297.98,132.55l2.17,5.81c.05-.04.09-.07.14-.11v-5.7h-2.31ZM332.53,170.74c-.83,7.2-2.49,16.06-4.43,22.42l9.55,3.18c1.93-6.22,3.87-15.77,4.84-22.83l-9.96-2.77ZM332.53,170.74c-.83,7.2-2.49,16.06-4.43,22.42l9.55,3.18c1.93-6.22,3.87-15.77,4.84-22.83l-9.96-2.77ZM297.98,132.55l2.17,5.81c.05-.04.09-.07.14-.11v-5.7h-2.31ZM297.98,132.55l2.17,5.81c.05-.04.09-.07.14-.11v-5.7h-2.31ZM332.53,170.74c-.83,7.2-2.49,16.06-4.43,22.42l9.55,3.18c1.93-6.22,3.87-15.77,4.84-22.83l-9.96-2.77ZM332.53,170.74c-.83,7.2-2.49,16.06-4.43,22.42l9.55,3.18c1.93-6.22,3.87-15.77,4.84-22.83l-9.96-2.77ZM297.98,132.55l2.17,5.81c.05-.04.09-.07.14-.11v-5.7h-2.31ZM297.98,132.55l2.17,5.81c.05-.04.09-.07.14-.11v-5.7h-2.31ZM332.53,170.74c-.83,7.2-2.49,16.06-4.43,22.42l9.55,3.18c1.93-6.22,3.87-15.77,4.84-22.83l-9.96-2.77ZM332.53,170.74c-.83,7.2-2.49,16.06-4.43,22.42l9.55,3.18c1.93-6.22,3.87-15.77,4.84-22.83l-9.96-2.77ZM297.98,132.55l2.17,5.81c.05-.04.09-.07.14-.11v-5.7h-2.31ZM297.98,132.55l2.17,5.81c.05-.04.09-.07.14-.11v-5.7h-2.31ZM332.53,170.74c-.83,7.2-2.49,16.06-4.43,22.42l9.55,3.18c1.93-6.22,3.87-15.77,4.84-22.83l-9.96-2.77ZM332.53,170.74c-.83,7.2-2.49,16.06-4.43,22.42l9.55,3.18c1.93-6.22,3.87-15.77,4.84-22.83l-9.96-2.77ZM297.98,132.55l2.17,5.81c.05-.04.09-.07.14-.11v-5.7h-2.31ZM297.98,132.55l2.17,5.81c.05-.04.09-.07.14-.11v-5.7h-2.31ZM332.53,170.74c-.83,7.2-2.49,16.06-4.43,22.42l9.55,3.18c1.93-6.22,3.87-15.77,4.84-22.83l-9.96-2.77ZM332.53,170.74c-.83,7.2-2.49,16.06-4.43,22.42l9.55,3.18c1.93-6.22,3.87-15.77,4.84-22.83l-9.96-2.77ZM297.98,132.55l2.17,5.81c.05-.04.09-.07.14-.11v-5.7h-2.31ZM297.98,132.55l2.17,5.81c.05-.04.09-.07.14-.11v-5.7h-2.31ZM332.53,170.74c-.83,7.2-2.49,16.06-4.43,22.42l9.55,3.18c1.93-6.22,3.87-15.77,4.84-22.83l-9.96-2.77ZM332.53,170.74c-.83,7.2-2.49,16.06-4.43,22.42l9.55,3.18c1.93-6.22,3.87-15.77,4.84-22.83l-9.96-2.77ZM297.98,132.55l2.17,5.81c.05-.04.09-.07.14-.11v-5.7h-2.31ZM297.98,132.55l2.17,5.81c.05-.04.09-.07.14-.11v-5.7h-2.31ZM332.53,170.74c-.83,7.2-2.49,16.06-4.43,22.42l9.55,3.18c1.93-6.22,3.87-15.77,4.84-22.83l-9.96-2.77ZM332.53,170.74c-.83,7.2-2.49,16.06-4.43,22.42l9.55,3.18c1.93-6.22,3.87-15.77,4.84-22.83l-9.96-2.77ZM297.98,132.55l2.17,5.81c.05-.04.09-.07.14-.11v-5.7h-2.31ZM297.98,132.55l2.17,5.81c.05-.04.09-.07.14-.11v-5.7h-2.31ZM332.53,170.74c-.83,7.2-2.49,16.06-4.43,22.42l9.55,3.18c1.93-6.22,3.87-15.77,4.84-22.83l-9.96-2.77ZM297.98,132.55l2.17,5.81c.05-.04.09-.07.14-.11v-5.7h-2.31ZM332.53,170.74c-.83,7.2-2.49,16.06-4.43,22.42l9.55,3.18c1.93-6.22,3.87-15.77,4.84-22.83l-9.96-2.77ZM332.53,170.74c-.83,7.2-2.49,16.06-4.43,22.42l9.55,3.18c1.93-6.22,3.87-15.77,4.84-22.83l-9.96-2.77ZM297.98,132.55l2.17,5.81c.05-.04.09-.07.14-.11v-5.7h-2.31ZM297.98,132.55l2.17,5.81c.05-.04.09-.07.14-.11v-5.7h-2.31ZM332.53,170.74c-.83,7.2-2.49,16.06-4.43,22.42l9.55,3.18c1.93-6.22,3.87-15.77,4.84-22.83l-9.96-2.77ZM332.53,170.74c-.83,7.2-2.49,16.06-4.43,22.42l9.55,3.18c1.93-6.22,3.87-15.77,4.84-22.83l-9.96-2.77ZM297.98,132.55l2.17,5.81c.05-.04.09-.07.14-.11v-5.7h-2.31ZM297.98,132.55l2.17,5.81c.05-.04.09-.07.14-.11v-5.7h-2.31ZM332.53,170.74c-.83,7.2-2.49,16.06-4.43,22.42l9.55,3.18c1.93-6.22,3.87-15.77,4.84-22.83l-9.96-2.77ZM332.53,170.74c-.83,7.2-2.49,16.06-4.43,22.42l9.55,3.18c1.93-6.22,3.87-15.77,4.84-22.83l-9.96-2.77ZM297.98,132.55l2.17,5.81c.05-.04.09-.07.14-.11v-5.7h-2.31ZM297.98,132.55l2.17,5.81c.05-.04.09-.07.14-.11v-5.7h-2.31ZM332.53,170.74c-.83,7.2-2.49,16.06-4.43,22.42l9.55,3.18c1.93-6.22,3.87-15.77,4.84-22.83l-9.96-2.77ZM332.53,170.74c-.83,7.2-2.49,16.06-4.43,22.42l9.55,3.18c1.93-6.22,3.87-15.77,4.84-22.83l-9.96-2.77ZM297.98,132.55l2.17,5.81c.05-.04.09-.07.14-.11v-5.7h-2.31ZM297.98,132.55l2.17,5.81c.05-.04.09-.07.14-.11v-5.7h-2.31ZM332.53,170.74c-.83,7.2-2.49,16.06-4.43,22.42l9.55,3.18c1.93-6.22,3.87-15.77,4.84-22.83l-9.96-2.77ZM332.53,170.74c-.83,7.2-2.49,16.06-4.43,22.42l9.55,3.18c1.93-6.22,3.87-15.77,4.84-22.83l-9.96-2.77ZM297.98,132.55l2.17,5.81c.05-.04.09-.07.14-.11v-5.7h-2.31ZM297.98,132.55l2.17,5.81c.05-.04.09-.07.14-.11v-5.7h-2.31ZM332.53,170.74c-.83,7.2-2.49,16.06-4.43,22.42l9.55,3.18c1.93-6.22,3.87-15.77,4.84-22.83l-9.96-2.77ZM332.53,170.74c-.83,7.2-2.49,16.06-4.43,22.42l9.55,3.18c1.93-6.22,3.87-15.77,4.84-22.83l-9.96-2.77ZM297.98,132.55l2.17,5.81c.05-.04.09-.07.14-.11v-5.7h-2.31ZM297.98,132.55l2.17,5.81c.05-.04.09-.07.14-.11v-5.7h-2.31ZM332.53,170.74c-.83,7.2-2.49,16.06-4.43,22.42l9.55,3.18c1.93-6.22,3.87-15.77,4.84-22.83l-9.96-2.77ZM332.53,170.74c-.83,7.2-2.49,16.06-4.43,22.42l9.55,3.18c1.93-6.22,3.87-15.77,4.84-22.83l-9.96-2.77ZM297.98,132.55l2.17,5.81c.05-.04.09-.07.14-.11v-5.7h-2.31ZM297.98,132.55l2.17,5.81c.05-.04.09-.07.14-.11v-5.7h-2.31ZM332.53,170.74c-.83,7.2-2.49,16.06-4.43,22.42l9.55,3.18c1.93-6.22,3.87-15.77,4.84-22.83l-9.96-2.77ZM332.53,170.74c-.83,7.2-2.49,16.06-4.43,22.42l9.55,3.18c1.93-6.22,3.87-15.77,4.84-22.83l-9.96-2.77ZM297.98,132.55l2.17,5.81c.05-.04.09-.07.14-.11v-5.7h-2.31ZM297.98,132.55l2.17,5.81c.05-.04.09-.07.14-.11v-5.7h-2.31ZM332.53,170.74c-.83,7.2-2.49,16.06-4.43,22.42l9.55,3.18c1.93-6.22,3.87-15.77,4.84-22.83l-9.96-2.77ZM332.53,170.74c-.83,7.2-2.49,16.06-4.43,22.42l9.55,3.18c1.93-6.22,3.87-15.77,4.84-22.83l-9.96-2.77ZM297.98,132.55l2.17,5.81c.05-.04.09-.07.14-.11v-5.7h-2.31ZM297.98,132.55l2.17,5.81c.05-.04.09-.07.14-.11v-5.7h-2.31ZM332.53,170.74c-.83,7.2-2.49,16.06-4.43,22.42l9.55,3.18c1.93-6.22,3.87-15.77,4.84-22.83l-9.96-2.77ZM332.53,170.74c-.83,7.2-2.49,16.06-4.43,22.42l9.55,3.18c1.93-6.22,3.87-15.77,4.84-22.83l-9.96-2.77ZM297.98,132.55l2.17,5.81c.05-.04.09-.07.14-.11v-5.7h-2.31ZM297.98,132.55l2.17,5.81c.05-.04.09-.07.14-.11v-5.7h-2.31ZM297.98,132.55l2.17,5.81c.05-.04.09-.07.14-.11v-5.7h-2.31ZM297.98,132.55l2.17,5.81c.05-.04.09-.07.14-.11v-5.7h-2.31ZM297.98,132.55l2.17,5.81c.05-.04.09-.07.14-.11v-5.7h-2.31Z"/>
      <g>
        <path class="cls-1" d="M297.98,132.55l2.17,5.81c.05-.04.09-.07.14-.11v-5.7h-2.31ZM332.53,170.74c-.83,7.2-2.49,16.06-4.43,22.42l9.55,3.18c1.93-6.22,3.87-15.77,4.84-22.83l-9.96-2.77Z"/>
        <path class="cls-1" d="M394.5,201.99c-2.9-3.47-5.37-7.29-7.45-11.46,2.51-1.88,5.06-4.11,7.45-6.55,1.83-1.87,3.58-3.86,5.14-5.9l-5.14-6.68-4.13-5.36c-2.49,3.73-5.4,7.19-8.72,10.1-.31-1.16-.61-2.34-.89-3.53-.6-2.49-1.13-5.05-1.6-7.68h15.34v-66.56h-48.27v106.14l-4.02.55v-7.47c-4.01,1.25-9.27,2.49-14.8,3.74v-34.18h13.7v-15.5h-13.43v-9.69h7.2v-11.9l4.29,3.73,6.78-16.6c-8.44-5.81-14.53-13.42-18.4-23.11h-14.4c-3.46,9.96-9.96,20.06-19.51,26.85l4.34,11.62h2.31v5.7c1.88-1.5,3.63-3.26,5.39-5.15v8.86h7.33v9.69h-14.53v15.5h14.81v36.67c-6.09.97-12.04,1.66-17.3,1.93l3.32,16.89c4.84-.57,9.82-1.33,14.72-2.21,9.26-1.66,18.28-3.74,25.69-5.82l1.94,8.03c9.83-1.8,23.39-5.12,32.24-8.44v-15.92c2,4.72,4.28,9.1,6.86,13.11,2.94,4.58,6.27,8.68,10.03,12.22l3.71-4.52,7.77-9.46c-2.88-2.33-5.46-4.87-7.77-7.64ZM310.94,126.74c1.06-1.44,2.1-2.92,3.09-4.43,2.73-4.16,5.07-8.5,6.6-12.46,2.63,5.82,6.36,11.77,11.07,16.89h-20.76ZM361.17,113.73h18.96v10.24h-18.96v-10.24ZM361.17,138.78h18.96v10.93h-18.96v-10.93ZM361.17,201.6v-36.81l3.74.14c1.66,11.63,4.7,22.97,8.99,33.08-3.59,1.24-8.16,2.62-12.73,3.59Z"/>
        <path class="cls-1" d="M312.32,197.17l-10.24,3.6c-.7-6.03-1.7-13-2.88-19.5-.45-2.45-.92-4.84-1.41-7.07l2.03-.53,8.49-2.23c1.66,7.19,3.18,17.15,4.01,25.73Z"/>
      </g>
    </g>
  </g>
</svg>